<mxfile host="app.diagrams.net" agent="Mozilla/5.0 (Windows NT 10.0; Win64; x64) AppleWebKit/537.36 (KHTML, like Gecko) Chrome/130.0.0.0 Safari/537.36" version="24.8.0">
  <diagram name="Page-1" id="FVJIU46BaidP9cROOBoD">
    <mxGraphModel dx="1478" dy="-3603" grid="1" gridSize="10" guides="1" tooltips="1" connect="1" arrows="1" fold="1" page="1" pageScale="1" pageWidth="850" pageHeight="1100" math="0" shadow="0">
      <root>
        <mxCell id="0" />
        <mxCell id="1" parent="0" />
        <mxCell id="tuf6UApejyB9xa2wXZY_-5" value="" style="rounded=1;whiteSpace=wrap;html=1;" parent="1" vertex="1">
          <mxGeometry x="510" y="4460" width="720" height="680" as="geometry" />
        </mxCell>
        <mxCell id="tuf6UApejyB9xa2wXZY_-3" value="" style="image;aspect=fixed;html=1;points=[];align=center;fontSize=12;image=img/lib/azure2/networking/Front_Doors.svg;" parent="1" vertex="1">
          <mxGeometry x="720" y="4700" width="68" height="60" as="geometry" />
        </mxCell>
        <mxCell id="tuf6UApejyB9xa2wXZY_-24" style="edgeStyle=orthogonalEdgeStyle;rounded=0;orthogonalLoop=1;jettySize=auto;html=1;" parent="1" source="tuf6UApejyB9xa2wXZY_-4" target="tuf6UApejyB9xa2wXZY_-23" edge="1">
          <mxGeometry relative="1" as="geometry" />
        </mxCell>
        <mxCell id="tuf6UApejyB9xa2wXZY_-30" style="edgeStyle=orthogonalEdgeStyle;rounded=0;orthogonalLoop=1;jettySize=auto;html=1;entryX=0.5;entryY=1;entryDx=0;entryDy=0;" parent="1" source="tuf6UApejyB9xa2wXZY_-4" target="tuf6UApejyB9xa2wXZY_-29" edge="1">
          <mxGeometry relative="1" as="geometry" />
        </mxCell>
        <mxCell id="tuf6UApejyB9xa2wXZY_-4" value="" style="image;aspect=fixed;html=1;points=[];align=center;fontSize=12;image=img/lib/azure2/networking/Azure_Firewall_Manager.svg;" parent="1" vertex="1">
          <mxGeometry x="875" y="4710" width="70" height="60" as="geometry" />
        </mxCell>
        <mxCell id="tuf6UApejyB9xa2wXZY_-7" style="edgeStyle=orthogonalEdgeStyle;rounded=0;orthogonalLoop=1;jettySize=auto;html=1;entryX=-0.014;entryY=0.483;entryDx=0;entryDy=0;entryPerimeter=0;" parent="1" source="tuf6UApejyB9xa2wXZY_-3" target="tuf6UApejyB9xa2wXZY_-4" edge="1">
          <mxGeometry relative="1" as="geometry" />
        </mxCell>
        <mxCell id="tuf6UApejyB9xa2wXZY_-21" style="edgeStyle=orthogonalEdgeStyle;rounded=0;orthogonalLoop=1;jettySize=auto;html=1;exitX=0.5;exitY=1;exitDx=0;exitDy=0;" parent="1" source="tuf6UApejyB9xa2wXZY_-8" target="tuf6UApejyB9xa2wXZY_-11" edge="1">
          <mxGeometry relative="1" as="geometry" />
        </mxCell>
        <mxCell id="tuf6UApejyB9xa2wXZY_-8" value="Front Door" style="text;html=1;align=center;verticalAlign=middle;whiteSpace=wrap;rounded=0;" parent="1" vertex="1">
          <mxGeometry x="720" y="4770" width="60" height="30" as="geometry" />
        </mxCell>
        <mxCell id="tuf6UApejyB9xa2wXZY_-9" value="WAF Policy" style="text;html=1;align=center;verticalAlign=middle;whiteSpace=wrap;rounded=0;" parent="1" vertex="1">
          <mxGeometry x="870" y="4770" width="80" height="30" as="geometry" />
        </mxCell>
        <mxCell id="tuf6UApejyB9xa2wXZY_-11" value="" style="rounded=0;whiteSpace=wrap;html=1;" parent="1" vertex="1">
          <mxGeometry x="634.5" y="4855" width="430" height="190" as="geometry" />
        </mxCell>
        <mxCell id="tuf6UApejyB9xa2wXZY_-13" value="" style="image;aspect=fixed;html=1;points=[];align=center;fontSize=12;image=img/lib/azure2/app_services/App_Services.svg;" parent="1" vertex="1">
          <mxGeometry x="690.5" y="4908" width="64" height="64" as="geometry" />
        </mxCell>
        <mxCell id="tuf6UApejyB9xa2wXZY_-14" value="&lt;font style=&quot;font-size: 12px;&quot;&gt;&lt;b style=&quot;font-size: 12px;&quot;&gt;VAP Web&lt;/b&gt;&lt;/font&gt;" style="text;html=1;strokeColor=none;fillColor=none;align=center;verticalAlign=middle;whiteSpace=wrap;rounded=0;fontSize=12;" parent="1" vertex="1">
          <mxGeometry x="662.5" y="4972" width="120" height="40" as="geometry" />
        </mxCell>
        <mxCell id="tuf6UApejyB9xa2wXZY_-15" value="" style="image;aspect=fixed;html=1;points=[];align=center;fontSize=12;image=img/lib/azure2/app_services/App_Services.svg;" parent="1" vertex="1">
          <mxGeometry x="807.5" y="4908" width="64" height="64" as="geometry" />
        </mxCell>
        <mxCell id="tuf6UApejyB9xa2wXZY_-16" value="&lt;b&gt;Public Viewer&lt;/b&gt;" style="text;html=1;strokeColor=none;fillColor=none;align=center;verticalAlign=middle;whiteSpace=wrap;rounded=0;fontSize=12;" parent="1" vertex="1">
          <mxGeometry x="774.5" y="4972" width="130" height="40" as="geometry" />
        </mxCell>
        <mxCell id="tuf6UApejyB9xa2wXZY_-17" value="" style="image;aspect=fixed;html=1;points=[];align=center;fontSize=12;image=img/lib/azure2/app_services/App_Services.svg;" parent="1" vertex="1">
          <mxGeometry x="924.5" y="4908" width="64" height="64" as="geometry" />
        </mxCell>
        <mxCell id="tuf6UApejyB9xa2wXZY_-18" value="&lt;b&gt;Proxy&lt;/b&gt;" style="text;html=1;strokeColor=none;fillColor=none;align=center;verticalAlign=middle;whiteSpace=wrap;rounded=0;fontSize=12;" parent="1" vertex="1">
          <mxGeometry x="896.5" y="4972" width="120" height="40" as="geometry" />
        </mxCell>
        <mxCell id="tuf6UApejyB9xa2wXZY_-22" style="edgeStyle=orthogonalEdgeStyle;rounded=0;orthogonalLoop=1;jettySize=auto;html=1;entryX=0.912;entryY=0.933;entryDx=0;entryDy=0;entryPerimeter=0;exitX=-0.014;exitY=0.933;exitDx=0;exitDy=0;exitPerimeter=0;" parent="1" source="tuf6UApejyB9xa2wXZY_-4" target="tuf6UApejyB9xa2wXZY_-3" edge="1">
          <mxGeometry relative="1" as="geometry" />
        </mxCell>
        <mxCell id="tuf6UApejyB9xa2wXZY_-23" value="" style="image;aspect=fixed;html=1;points=[];align=center;fontSize=12;image=img/lib/azure2/analytics/Log_Analytics_Workspaces.svg;" parent="1" vertex="1">
          <mxGeometry x="1060" y="4708" width="64" height="64" as="geometry" />
        </mxCell>
        <mxCell id="tuf6UApejyB9xa2wXZY_-25" value="Log Analytics Workspaces" style="text;html=1;align=center;verticalAlign=middle;whiteSpace=wrap;rounded=0;" parent="1" vertex="1">
          <mxGeometry x="1040" y="4790" width="80" height="30" as="geometry" />
        </mxCell>
        <mxCell id="tuf6UApejyB9xa2wXZY_-26" value="" style="aspect=fixed;sketch=0;html=1;dashed=0;whitespace=wrap;fillColor=#2875E2;strokeColor=#ffffff;points=[[0.005,0.63,0],[0.1,0.2,0],[0.9,0.2,0],[0.5,0,0],[0.995,0.63,0],[0.72,0.99,0],[0.5,1,0],[0.28,0.99,0]];shape=mxgraph.kubernetes.icon2;prIcon=user" parent="1" vertex="1">
          <mxGeometry x="715" y="4560" width="72.08" height="69.2" as="geometry" />
        </mxCell>
        <mxCell id="tuf6UApejyB9xa2wXZY_-28" style="edgeStyle=orthogonalEdgeStyle;rounded=0;orthogonalLoop=1;jettySize=auto;html=1;" parent="1" source="tuf6UApejyB9xa2wXZY_-27" target="tuf6UApejyB9xa2wXZY_-3" edge="1">
          <mxGeometry relative="1" as="geometry" />
        </mxCell>
        <mxCell id="tuf6UApejyB9xa2wXZY_-27" value="&lt;span style=&quot;font-size: 14px;&quot;&gt;&lt;b&gt;Users&lt;/b&gt;&lt;/span&gt;" style="text;html=1;strokeColor=none;fillColor=none;align=center;verticalAlign=middle;whiteSpace=wrap;rounded=0;fontSize=12;" parent="1" vertex="1">
          <mxGeometry x="685" y="4624" width="130" height="40" as="geometry" />
        </mxCell>
        <mxCell id="tuf6UApejyB9xa2wXZY_-34" value="" style="edgeStyle=orthogonalEdgeStyle;rounded=0;orthogonalLoop=1;jettySize=auto;html=1;" parent="1" source="tuf6UApejyB9xa2wXZY_-29" target="tuf6UApejyB9xa2wXZY_-33" edge="1">
          <mxGeometry relative="1" as="geometry" />
        </mxCell>
        <mxCell id="tuf6UApejyB9xa2wXZY_-29" value="" style="rounded=1;whiteSpace=wrap;html=1;" parent="1" vertex="1">
          <mxGeometry x="830" y="4590" width="270" height="70" as="geometry" />
        </mxCell>
        <mxCell id="tuf6UApejyB9xa2wXZY_-31" value="Regular expression check for each WAF rules regular expression" style="text;html=1;align=center;verticalAlign=middle;whiteSpace=wrap;rounded=0;" parent="1" vertex="1">
          <mxGeometry x="835" y="4610" width="260" height="30" as="geometry" />
        </mxCell>
        <mxCell id="tuf6UApejyB9xa2wXZY_-33" value="" style="shape=image;verticalLabelPosition=bottom;labelBackgroundColor=default;verticalAlign=top;aspect=fixed;imageAspect=0;image=data:image/png,iVBORw0KGgoAAAANSUhEUgAAASAAAAAcCAIAAABOLvW1AAAZR0lEQVR4Ae1bB1RU17oehCmnn5lzzjR6RzqoIFFQQATETiwoYkUExQJqMMaSiAYsKBFQRATFXrCLCkpHeu+MIGBNYpJ7827uuu+99d5z2Mm5cwdQY5ZvrZs1a7Fce/b593/2/vb//fv//33kTKQYzZ8GAQ0CHwkBDk8o0fxpENAg8JEQ4GBCieZPg4AGgY+EgIZgGv+iQeAjIqAh2EcE9yM5RY3afyMENATTEEyDwEdEQEOwjwjuv5Gj1Uz1IyHwJySYNh/jweRHwkujVoPA70LgXwiGkmJMKAH/qmqBMIoHk2w/SorZtqrYkJ2qAqCNEAwPJhGCYR+950BWXrWBkuK//vCS7UEIZv2mrXMXLhWgItCJEAwXInQEOBciYJxmJT+soaqNXYIAFfER4WCFwwGlKslHhDoCXEeAsxNWffo+bdW3vB1J9qkAFf3X3/+iI8DVpi1ARaATSALN7KghJ4OSYj6sXILa/IEqVW1DDn9L5wesC8Io7gCYquY6+BVq9jxYgO1hcQA9qpbGyry98U+CEZRMJNYjabmQ0SVpOTsMxunAeYtOZF2wcXSBMIqk5RJdY0ZmiJJiVXsFA3GRlB04ZEOAitw8JmWdz57oEwDjNEHJxHIjsdwIF0lVtamNBRNT68SEEpKWi8R6qk4BxumCsurElONciMCEEj4iHOXqfv3Og6Ly6hs5DycHzAJ2gBAMSctJWg4QBGsnKNngV4AegAlCMJ6TA27k5BWUVt26n+/h5YcQDB8Rbvr8y917EwWoiLVFhGCEjK5E15iWGqgaipp+hGDiE5KLymvzS6q27vxaJNZjNahJDvkTIRgAoETXWCTWIyiZkNEdTgN4CjZoZ+zegrKq4ora2PiDBCVjiRS2Jqq4vOablONSPROUFIvlRsq9lhsBmcFzQHDG1MouOS2jtKp2zYbPAOaYUKIjwFev31xcXltYVrX3YLK+seVbNnewWmAYjMxQomtMSfTZXR4siQkl7Lr4CBm+dtPD4oqSitqk1AwjM2sYpyGMAnuNi6QQRoGVLl255vDRE8bmNhBGDakTdCpNWqzkgpDRFTK6Q9o2LpIC5IeD/VeCjeChn+/c0/64f/3mrW2Kvn2HkimJPkqKuQLcf3pga1fvjti9EE6/Md+JPlNu3n1Q36rYFZegb2wJ9KKkOPPMpSfPv5/kP4NFefDU+YjQzsm16FHN6fNXhYwujNM2jmOyzl+paWrPOHPR2mH0kLPERdKk1Ix7D4qtbJ1ZN4mSYlwkPZ99q+/Vj4HzQ9iYEMbpnAfFew8mg2nwYNLDy1/R93Lrzt26huZCRhcTSmCcHmk36mFJ5a37BZY2TlyIsHEYk5NXlJhyfLAdIAQjMzB7WFx5KCWNkRkqN1uit27j50+efTfj0yCwhQEz53Z0P436bBvYPwijPH0CCh/VVNY1dfQ827ItFmzzYEAQgrl6O/dBcbmzy3haajBY4C09ME47jv7k9v3C2qb2grLqlREb5gUvq2vpGmk3ashVREbF1DV3ek2eyoMISmoweqxHYVn15es5LMEMTKzqWxXbd8UTlAzCKFtHlys37hWX19S3Km7cfWDjMGZIcyQomUTXePPWnc2dvRMmTQEbMYKHxiUkNbV3G5qOlOqbDmmawy0NJcXG5jY5ecX1rYr80qromO1zFiyuaeqYNns+u8vsWB5EhEdGN7QqJgfMgjCKkhhYWDtevXU/v6TSzMoeIRhbB5dxEyefuXQ9KGSFvfNYmb6pABXZOblW1rUeTE4jaTkbhrA6MaEEIRhGbpiQlNqq6I2K2db+uG9XXIKQ0VUTRnDGzMr++p28tMyzao9Ybf8k2M7d+/pevF4VGdX/6sc9+xNJWg5hlERudPbyjVv3C1hwEYLhaEPTA4N6X7w+cjxLgIpgnObowAsWh8bGH7RzcmU5IEBFHB2Y5Rsgz87d+2qbOw1NrIBClBSP4KG2ji61zZ33CkoZmREQ48EkRwcGqmCc9p8e2NTevXBxKHBCAAJ757FFj2ryS6syzlyU6BqDFQ4mmLunX6uib210DEIwQLkAo/YnHikqrysoq94eGw/jtBYXidm2q6q+zcLGSZXkymloCVChpKSi/kj6KbHcCCGYETx06co1nT3Pps2eB0xZgIo2xmzv6Hnm7TttBBeRG5hdv5OXffMeIzMMWxPV1fvy0/khI3goRxsSoCJcJOVCBEcHBqy7dD3n1v18EwtbFmEIo7R0YI42DBAY0jqBfznwzdHWrr7RbhM42hBXgI/5ZGJZdWNs/EF2CwBQyldr8SPWbWp/3D/JbzoPIgSoyMzK/u6D4vNXbgKCwTg9a25wa1fv3IVLdQQ4CApA+Drmkwmdvc/DVkeN4KGs3ag2BKjI2mF0Q1v3jE8XgLEjeOjufYmV9a24SMriCeyEo6Ncl1poqqqNB5PxCUkdPc88fQK0uAgPJg1MrO7kFaadPAvwB8JKy+EiHI7Wyoj1XU+e+0//FMIoGKcZmeGZi9fu55eaWtrhIunnO3dfup5TUdd87vKNs5eu2zuP5SNChGBCI9Ypel/MmhvMOiNgilyIYCOOuISkvpc/BM4PefnDz2s2fKbFRVTnCdp8RBgds72+tWvCJH9V2FnJXwkGYdSosR4LF4faObvOX7R83EQfXCTV5mMBM+c1dfQEzJjDzgNAj5Li5LTMqoZWI3Nrh1FuCYdTjxzP3L4r3nYgjMSEEgEqcvfyO3z0xPKwtcB0IIyyth9dUduyYdNW1taBNh5Mrtnw2eP+lx7e/jBOC1DRgpAVyccyfabMAASW6Ztm37qfdeGqTN+Utekt22Pv5Zfs2Z9Y09hu8ttxPxzB1m3cAoBDCGaM24SqhrZVazdGRseUVTfYObvyYNJz8tSGNsX6TVuBmwRmMXfBkuOnzp2+eK3v5Q/JxzLABmvzsWVhkaoEgzBK39iyuqFtz75ElBQHzJjT0fMsZNkqLS4SunrDD//xn3sPJS9buSYl7eREnwClMwpZcTg1w83dmweTgGCmlnZgXXxE6DLOMzk14+S5S0fTs4AMu1tsAxjTsYwz+SWV5taOWlwEhFX7DqWUVtabWNoCdwNhlKHpyNi4hMyzF0sr69u7n3oPEAzCKPORDqoEgzAqeGlYd/+roEXLWZ8I47Q2H/P2nd7V+yJ4aZg2H2MnoNqAMMrO2bWxvWfqrHlAhiUYG3VDGGVh7Zh0LPPk2ctH07N8A2YNyTGls9OBE1PSS6vqLawdtfkYQjAITkdGxdS3KMytHaGB1Brszu59icdPnit6VKPofeE3LRA4LLHcCBDMzMpeR4AzcqPrt3P/53//9/XP/5g5Z6GWDoyLpAJUZGppd+t+/tVbuWCGKCkWifW27tyzInwtLTVACEaAihxGuQUvDZPpmy5cstLJZTzrAVXXjpLikXajqhvaNm3dOSQDfyUYeKs2H4MwSpuPAZaTtDw2PqG6sd3AZKQqwQhKZm7tcD0n72FJhUisJ9M3HTfBJ/lYRt+L135TZ4Pt4UJEyPLw1z//43jmOQAljNOLQyPaHvd7+gQAPwcmioukMn3ThKTUtu5+K7tRoASScDj1p1/+O2LdRqCNjwjnBC2pb1E4jv4E+AkIoy5cvZ187OTkKTPbHveHRqx/+wnGEoyPCBOPpN+6X4CLpA6j3ArKquITksEMD6Wk3X1QbGqltHWUFAcvXdmq6Iva/IWP/4z6VkVKWuZwBFNGFDLDtMyzN+4+NDCxWha2pra5c4K3/47YveU1TWVVDacvXPvEY1JBWfWd3KLQ8HUtnb2JA3kOhFGqBINxWs/IYv83R4OXhnn5Ts0vrcrJLTI0HQlhFKij8BEhKB4sXrE6v7iy++m3z7//a1l147Xbue6evlyIGDfRp6apPTwymgsRYFanL14rrWwInLdof+IR9gRTI9ibIJyWGsRs21VcUfeJxySAsI4AnzU3+GFJZaui72j6aUZmOFwUBMhTVtWwY/demb4pOArACcaaLyXR/3pf4sYtO0aN9XhYXPGgqNzK1ll1XWALloWtyS0oU/S9fPH65/Kapus5D6xsnXX42Ej70Q+KynfE7kUGylRv4vbUjDPltU2z5i6MS0hiTzCEYFiCmVjYkrR878HkU+ez80sq006eu3rr/hi3iWB1PJj84quvH9U0iSR6wOREjF5VfVvm2UuURJ8LESwjEILR5mMg9FClFtt+E3F8uWd/XlG5ld2owYfYrwRjpdkGgtMyfdOs89l5ReVskoqS4jcBenxC0nd/+Xt+SaWX71RgizyYjNwQ06bo81HJwQhKRkn0QdoD1H719YGGVoXLOE/We8E4HRqx/tuffqlpal+0fBV7OgsZXZDdgoECVGRl43z3YcnuvYeAd/GaPLW2uXPh4lCx3CjnQXHW+WzgAt55gmFCCZgVMBeRWI+S6GNCCYRR02bNq29VzJ63SJuPicR6J89evp7zQM/IgqTlpZUNKcdPvoVgtNTgzZFbWllvamW/JDSitrmjoKzq3JWbI+1H37qXn5pxBhdJre1HF5RWP/3up9QTZ1BSrPTNBKNKMDANY3ObcRN8JvoEHMs809z5xNbJFRdJx3v6+kyZ4eM/Y6y7Ny01EDK6+saWGaeV55LreC9aagDqUgjBnDqXfercFZDT249ya+nqXbA4lMPhRUYpNwiEiKoEU+Y8FrZJqRmPahqDQlawZRLg1KV6JhbWjhV1LSlpmTJ90yE5Bs6TOUGLH5ZUpp44TdJyLS6iSjAQqZqPdHD38hvv6ZuWebal84mX7zQuRIwd7+Xjr1yXu5cfKGZQUoOj6acr61vc3L3FA/UVTCjR5mPbd8UXlFXLDcz4iHCS3/Smjp7wtRs5HG54ZHRnzzMQIqoSzMzKHsZpSqxvYeN4MClt2uz5qhY1godGx+xoe9zn4e0n0TX28PKbNmtebVPntTt502bPdxnnyRLhnQ2Q1NU1dwWFrGANmx31NoJJdI3TMs8WParVM7JgTzBcJJ0eGLQqMpqWGrB8BcVxNYKBHIw9rFBS/PmO3c2dPW7uk9hsFSGYTzwmRcdsN7W0YyMTTChRZinakOp0tbjIhs+2VdQ2m1jYcnTgyKiYb3/6Jf3U+W274upbu4rKa0HF5X0IxtL4t/Ljr5cTJC2/da8g8Ug6sK1b9/Kzb97TN7HCRdLi8rq3E4yS6H9zJP1hcYWxuc3kKTP7X/2YdSGboGRGZtYVtc1ffPk1jFFSPZPz2Td7X77esiMWhFJqBINxWtfQ/OTZy7VNHSeyLpRU1Da2d1vbj5HqmcQfSMo4czHj9MUdsfFGZsqAgqTlaZlni8trbRxdWKBgnPabFtjY0TNlxhwtLrJwSWhX7/M5QUs4HF7Euk1DEoygZMBJh6/d2NL5xMd/BqsNEIOk5emnLtx7WApMFqRS7LYCp2DtMLqlqzcyKgbUx9VCRIRgLKwdL169XVbdmJJ2sqSirrG923PyVC5EfPHl1xmnL57IurD3YDI4JHkwefhoRnltk52TKxuVKUk1EEcsX7UWJPydPc9WhK/jcHgrI9Z3dj8dkmBguPIiARGCk4C1+xE8NGrztoY2xUi7UXZOrgmHU7POX3ny7PuGtsdZ57O/+CqOTR3ZIcM1EIKR6pmcPHf5wtXbUj0TlilAfliCoaQYwqjwtdFtij5v32lgGEqKKYn+hk1b4w4kWdo4gQWAq6HIqJh2RZ/nQI4BcrAJk6aknjgdtnoDEIMwytt/equib+XqDQj+a70BIZjgJSsPJad5ePuz+ypARYuWrUrLPOs79deq+m9JnW9FXfPq9ZtpqcH5KzfLqhpWr98cvnZjROjirifPgxYtB5mJWhURFDnYEHE4mEB1MWjR8sr6VtfxXm8KPEeOnyqtrDe3dlyz/rMX3/8lefgQEcZpuYFZ9s17567clOiZ6BlZPCyuuHmvQKZvqjzYH/dP8PbX4WNJqRmFj2p2xSUoT5WQUHAZqHqCcSEiYMacVz/+LWzNBggVXblxt1XRZ+ekzMtBjYSjDWnzUJDBChnd4yfPlVTU2aoUlt7kxozM8HZu4f7EoyQtd3Zxb+7o2bz1S8cx43ILyrqePGdPsM7WetUcDMbphUtWPu57uSBkBfB04AaCCxEu4ybWNHV8FZcAepxcxqdlno3a/AV7yQFysIa27oCZc4fMwWCcDlm26ruffgleGsaHySs377Yq+j0nT+XBpDYf42hDHB1Yi4sAm+YjwqTUzIq6ZnvnsayxoqSYlhlknL54Ifum8sDx9mtsf7xlW6zZSIecvKLe59+/hWCDdxwhGEqifzj1RH5pNbgf4ujAME4XltUcST8FyniDR2FCyXD3YBBGzV+0rLK+xX96IDvndxAME0p4MOnmMamuuTPuwGGEUF7RIgQj0TW+k1vY8/Q71/FefETIhYjZcxflFj5qbO/uffG6urH9yPEsSqKvI8AXLVv17U+/pKafBsyBcdrQdGROXtHFAaKzKdM3R9Jf//yPkOXhbA79xgvuTzzy+ud/rIqMUj3WEIJJP3X+zEAt6EFxxabPlWklR4tv7zy2uKJ2d/xB4Kg+mGAQRplZ2ZdU1G3ZoSysj3J1Lyyrrm5sqaxrySt6dCglbbgQEVw/dPQ8C41Yz4NJGKd9/GeUVDZUN7Y0dfRErN/8JrPdFXewu//V4uXhME4fOX6qo/vZ9NnzR/BQVYIJUJGFjVP2zXuN7YrCsuqy6saHJZW2jv8szLK7jpJiIaOblJqRW1Bm4zCGDSWAjW7Zvqu0qh4Qb/uu+JauJ/UtXTkPikur6kGZXjVEZKuIi5aFdfU+nzdQRURJ8fzgZXmFjwof1dS1dCWmpFMSfRin+YjQdbxXV++L/lc/eHj5AWN6k0naOI5paOueHhikVkVkczBjc5trt3MbWhXlNU25BWXFFfVsTZ9dFGi8sZYD36Tml1baOrqoGqsAFQUvDWtoe+wbMIsLEzti97Z09lY1tN3JLSyrbgRlerUQkT0AB79i9FiP8pqmw0dPgEcoKZboGucWPEo6liHRNVZ9r9rYIX8KUJG5tePdB8UHk46pjR32BAOKdPjYzt37uvtf+U6dzcZ14IqWLR+TtFwsNwKJASMzZO9zcJFUyOiydSRw/zhnwZLel68j1m1izyv2olB16qBTdSwIRfymBXY9eb54RYRa0gmmBE6hIQm2KjJK67e6v+qLVNsIweCUdFfcgZrGdodRbhAqImk5IzMUivVwkRRMBsIoDkdrweJQtoqIkmKpnsnVW/ev3ckzMrMGFwngcpORG4okyrtj4DJBeqN8i0g6kA8o71UuXc+5npMn1TMBRXBQf3+T0YE7N5KWszirThW0CUo2WECAiuyd3SrqmuMPJoHwj5Lo01IDVWGtgbuE2/cLVMv0Ht5+rYre+YuWczg6gMDgGwCwocAh6ghwPWPL+/ll7Y/75QZm4Czl6MAu4ya2KvrVCFZe26zNx3QEOIjJQSmFkRmqzmTwosDd8eB1DURPBvmlVUmpGUqFhDKYUtPGhXAYp0+du3I/XxnQDkkwhGBEYr2UtMzSqnpTS2Wexs6BpOVqJsc+emdDm49t2PxFq6LP2n60aqb6DoLBOG1p63Tp2u1rt3N1jSxUR77zlYMFQLS6P/FIdUObrZPrh2nbunPPrLnBLNvV3qI86B/VsF9y8GBygveUp9/+dCe3IDpmh9OYcaqAqo0FX344jRm/Ky7B3dN3cBSOkmI7J9e10VsuX895+cPP4KKZjwg3b/2yprHDzd2b9RqDNQ/ZgxDMzXv5iv6XcQeSZs0JZoOuIYXfsxMUD1eu3rBh01bwtcDggbPnBu89mNTz9Nvsm/fYi2Yho3vj7sPcwrKgkBWgVK02ECXFo90mHE3P6nryIjpmO2Cv3NBsWdiavKKyuw9LWJvW4qH7DqW8+vFvO2Ljg5esZG8p1RT+rp/A9SxcHLple6yJhe3gfYQwysd/5s7d+5o7e4oe1ZqPdBiSYODLpPoWxfyQ5YO3+HdNSVUYwihnl/Ff7dnvN+1fosR3EAycG6aWdtMDg/RNrD6MEmrzkOqZTA+cb2Xr/GHaRvBQHkwO59dRUuw3dbabuzfYgDdRpb6x5ZygJaER65avWmvj6PL2l4LimxYXYYMu1cmjpNjK1nnFqrWh4evmLlxqYmkLvhfz8PJ39/QdjvOqGtTaKCn28p22JHT1qsho36mzP9h9DlarI8C1+dhwBuQ/LTB8bfSS0NWePgEskigptnceuyJ87afzQ4ZkJkqKnV3Gr4zY4DNlJsgXUEJ5en8aFBIasc7JZTyLAIRRYz6ZuHh5+Op1m2YEBr2lxK8283f+5ELEiIEsdLAkjFPunn7hkdHLwtb4TQ0EX/MNFsOEEtdxnj7+M4b7jGPIIe/TqfxCgIuoOdl3EwxwDNyrvM9r3imDEIyOQHmUv1PywwS4EKG6SFAiG8FDtfnYH38puHtV08ZHhKxt/d4582ByBA8FXuP3jv1g+eFeKkBFbwqA4GuGIZUPXJP+i4Dye7oBoxcgQpar4BIJrOst2oZ8xR/pFKBC7QEw3/5SASp6u8AfmYPa2PcimNoYzU8NAhoE3hMBDcE0/+FSg8BHREBDsI8I7ns6OY3YnxiBPwPBhrv++xNv2x9fmga0D8DwA0D7MxDsA5DSDNEg8P+DgIZgmhBRg8BHROD/ABQSgEHdbYx+AAAAAElFTkSuQmCC;" parent="1" vertex="1">
          <mxGeometry x="832" y="4532" width="288" height="28" as="geometry" />
        </mxCell>
        <mxCell id="tuf6UApejyB9xa2wXZY_-35" value="" style="rounded=0;whiteSpace=wrap;html=1;" parent="1" vertex="1">
          <mxGeometry x="560" y="5240" width="640" height="570" as="geometry" />
        </mxCell>
        <mxCell id="tuf6UApejyB9xa2wXZY_-36" value="" style="image;aspect=fixed;html=1;points=[];align=center;fontSize=12;image=img/lib/azure2/networking/Front_Doors.svg;" parent="1" vertex="1">
          <mxGeometry x="795.75" y="5470" width="68" height="60" as="geometry" />
        </mxCell>
        <mxCell id="tuf6UApejyB9xa2wXZY_-37" value="" style="aspect=fixed;sketch=0;html=1;dashed=0;whitespace=wrap;fillColor=#2875E2;strokeColor=#ffffff;points=[[0.005,0.63,0],[0.1,0.2,0],[0.9,0.2,0],[0.5,0,0],[0.995,0.63,0],[0.72,0.99,0],[0.5,1,0],[0.28,0.99,0]];shape=mxgraph.kubernetes.icon2;prIcon=user" parent="1" vertex="1">
          <mxGeometry x="640" y="5280" width="72.08" height="69.2" as="geometry" />
        </mxCell>
        <mxCell id="tuf6UApejyB9xa2wXZY_-38" value="&lt;span style=&quot;font-size: 14px;&quot;&gt;&lt;b&gt;Users with DevTest website&lt;/b&gt;&lt;/span&gt;" style="text;html=1;strokeColor=none;fillColor=none;align=center;verticalAlign=middle;whiteSpace=wrap;rounded=0;fontSize=12;" parent="1" vertex="1">
          <mxGeometry x="610" y="5344" width="130" height="40" as="geometry" />
        </mxCell>
        <mxCell id="tuf6UApejyB9xa2wXZY_-39" value="" style="aspect=fixed;sketch=0;html=1;dashed=0;whitespace=wrap;fillColor=#2875E2;strokeColor=#ffffff;points=[[0.005,0.63,0],[0.1,0.2,0],[0.9,0.2,0],[0.5,0,0],[0.995,0.63,0],[0.72,0.99,0],[0.5,1,0],[0.28,0.99,0]];shape=mxgraph.kubernetes.icon2;prIcon=user" parent="1" vertex="1">
          <mxGeometry x="784.5" y="5280" width="72.08" height="69.2" as="geometry" />
        </mxCell>
        <mxCell id="tuf6UApejyB9xa2wXZY_-47" style="edgeStyle=orthogonalEdgeStyle;rounded=0;orthogonalLoop=1;jettySize=auto;html=1;entryX=0.533;entryY=-0.033;entryDx=0;entryDy=0;entryPerimeter=0;" parent="1" source="tuf6UApejyB9xa2wXZY_-40" target="tuf6UApejyB9xa2wXZY_-36" edge="1">
          <mxGeometry relative="1" as="geometry">
            <mxPoint x="870" y="5470" as="targetPoint" />
          </mxGeometry>
        </mxCell>
        <mxCell id="tuf6UApejyB9xa2wXZY_-40" value="&lt;span style=&quot;font-size: 14px;&quot;&gt;&lt;b&gt;Users with Test website&lt;/b&gt;&lt;/span&gt;" style="text;html=1;strokeColor=none;fillColor=none;align=center;verticalAlign=middle;whiteSpace=wrap;rounded=0;fontSize=12;" parent="1" vertex="1">
          <mxGeometry x="754.5" y="5344" width="130" height="40" as="geometry" />
        </mxCell>
        <mxCell id="tuf6UApejyB9xa2wXZY_-41" value="" style="aspect=fixed;sketch=0;html=1;dashed=0;whitespace=wrap;fillColor=#2875E2;strokeColor=#ffffff;points=[[0.005,0.63,0],[0.1,0.2,0],[0.9,0.2,0],[0.5,0,0],[0.995,0.63,0],[0.72,0.99,0],[0.5,1,0],[0.28,0.99,0]];shape=mxgraph.kubernetes.icon2;prIcon=user" parent="1" vertex="1">
          <mxGeometry x="921.5" y="5280" width="72.08" height="69.2" as="geometry" />
        </mxCell>
        <mxCell id="tuf6UApejyB9xa2wXZY_-42" value="&lt;span style=&quot;font-size: 14px;&quot;&gt;&lt;b&gt;Users with Stag website&lt;/b&gt;&lt;/span&gt;" style="text;html=1;strokeColor=none;fillColor=none;align=center;verticalAlign=middle;whiteSpace=wrap;rounded=0;fontSize=12;" parent="1" vertex="1">
          <mxGeometry x="891.5" y="5344" width="130" height="40" as="geometry" />
        </mxCell>
        <mxCell id="tuf6UApejyB9xa2wXZY_-43" value="" style="aspect=fixed;sketch=0;html=1;dashed=0;whitespace=wrap;fillColor=#2875E2;strokeColor=#ffffff;points=[[0.005,0.63,0],[0.1,0.2,0],[0.9,0.2,0],[0.5,0,0],[0.995,0.63,0],[0.72,0.99,0],[0.5,1,0],[0.28,0.99,0]];shape=mxgraph.kubernetes.icon2;prIcon=user" parent="1" vertex="1">
          <mxGeometry x="1070" y="5280" width="72.08" height="69.2" as="geometry" />
        </mxCell>
        <mxCell id="tuf6UApejyB9xa2wXZY_-44" value="&lt;span style=&quot;font-size: 14px;&quot;&gt;&lt;b&gt;Users with Prod website&lt;/b&gt;&lt;/span&gt;" style="text;html=1;strokeColor=none;fillColor=none;align=center;verticalAlign=middle;whiteSpace=wrap;rounded=0;fontSize=12;" parent="1" vertex="1">
          <mxGeometry x="1040" y="5344" width="130" height="40" as="geometry" />
        </mxCell>
        <mxCell id="tuf6UApejyB9xa2wXZY_-54" style="edgeStyle=orthogonalEdgeStyle;rounded=0;orthogonalLoop=1;jettySize=auto;html=1;entryX=0.5;entryY=0;entryDx=0;entryDy=0;" parent="1" source="tuf6UApejyB9xa2wXZY_-45" target="tuf6UApejyB9xa2wXZY_-50" edge="1">
          <mxGeometry relative="1" as="geometry">
            <Array as="points">
              <mxPoint x="834" y="5570" />
              <mxPoint x="665" y="5570" />
            </Array>
          </mxGeometry>
        </mxCell>
        <mxCell id="tuf6UApejyB9xa2wXZY_-55" style="edgeStyle=orthogonalEdgeStyle;rounded=0;orthogonalLoop=1;jettySize=auto;html=1;exitX=0.5;exitY=1;exitDx=0;exitDy=0;entryX=0.5;entryY=0;entryDx=0;entryDy=0;" parent="1" source="tuf6UApejyB9xa2wXZY_-45" target="tuf6UApejyB9xa2wXZY_-51" edge="1">
          <mxGeometry relative="1" as="geometry" />
        </mxCell>
        <mxCell id="tuf6UApejyB9xa2wXZY_-56" style="edgeStyle=orthogonalEdgeStyle;rounded=0;orthogonalLoop=1;jettySize=auto;html=1;exitX=0.5;exitY=1;exitDx=0;exitDy=0;entryX=0.5;entryY=0;entryDx=0;entryDy=0;" parent="1" source="tuf6UApejyB9xa2wXZY_-45" target="tuf6UApejyB9xa2wXZY_-52" edge="1">
          <mxGeometry relative="1" as="geometry" />
        </mxCell>
        <mxCell id="tuf6UApejyB9xa2wXZY_-57" style="edgeStyle=orthogonalEdgeStyle;rounded=0;orthogonalLoop=1;jettySize=auto;html=1;entryX=0.5;entryY=0;entryDx=0;entryDy=0;" parent="1" source="tuf6UApejyB9xa2wXZY_-45" target="tuf6UApejyB9xa2wXZY_-53" edge="1">
          <mxGeometry relative="1" as="geometry">
            <Array as="points">
              <mxPoint x="834" y="5570" />
              <mxPoint x="1115" y="5570" />
            </Array>
          </mxGeometry>
        </mxCell>
        <mxCell id="tuf6UApejyB9xa2wXZY_-45" value="Front Door" style="text;html=1;align=center;verticalAlign=middle;whiteSpace=wrap;rounded=0;fontStyle=1" parent="1" vertex="1">
          <mxGeometry x="795.75" y="5530" width="75.5" height="30" as="geometry" />
        </mxCell>
        <mxCell id="tuf6UApejyB9xa2wXZY_-46" style="edgeStyle=orthogonalEdgeStyle;rounded=0;orthogonalLoop=1;jettySize=auto;html=1;exitX=0.5;exitY=1;exitDx=0;exitDy=0;entryX=0.537;entryY=0;entryDx=0;entryDy=0;entryPerimeter=0;" parent="1" source="tuf6UApejyB9xa2wXZY_-38" target="tuf6UApejyB9xa2wXZY_-36" edge="1">
          <mxGeometry relative="1" as="geometry">
            <Array as="points">
              <mxPoint x="675" y="5430" />
              <mxPoint x="832" y="5430" />
            </Array>
          </mxGeometry>
        </mxCell>
        <mxCell id="tuf6UApejyB9xa2wXZY_-48" style="edgeStyle=orthogonalEdgeStyle;rounded=0;orthogonalLoop=1;jettySize=auto;html=1;entryX=0.537;entryY=-0.033;entryDx=0;entryDy=0;entryPerimeter=0;" parent="1" source="tuf6UApejyB9xa2wXZY_-42" target="tuf6UApejyB9xa2wXZY_-36" edge="1">
          <mxGeometry relative="1" as="geometry">
            <Array as="points">
              <mxPoint x="960" y="5430" />
              <mxPoint x="832" y="5430" />
            </Array>
          </mxGeometry>
        </mxCell>
        <mxCell id="tuf6UApejyB9xa2wXZY_-49" style="edgeStyle=orthogonalEdgeStyle;rounded=0;orthogonalLoop=1;jettySize=auto;html=1;entryX=0.507;entryY=-0.017;entryDx=0;entryDy=0;entryPerimeter=0;" parent="1" source="tuf6UApejyB9xa2wXZY_-44" target="tuf6UApejyB9xa2wXZY_-36" edge="1">
          <mxGeometry relative="1" as="geometry">
            <Array as="points">
              <mxPoint x="1105" y="5430" />
              <mxPoint x="830" y="5430" />
            </Array>
          </mxGeometry>
        </mxCell>
        <mxCell id="tuf6UApejyB9xa2wXZY_-50" value="DevTest VNet Services" style="rounded=0;whiteSpace=wrap;html=1;" parent="1" vertex="1">
          <mxGeometry x="600" y="5600" width="130" height="200" as="geometry" />
        </mxCell>
        <mxCell id="tuf6UApejyB9xa2wXZY_-51" value="Test VNet Services" style="rounded=0;whiteSpace=wrap;html=1;" parent="1" vertex="1">
          <mxGeometry x="754.5" y="5600" width="130" height="200" as="geometry" />
        </mxCell>
        <mxCell id="tuf6UApejyB9xa2wXZY_-52" value="Stag VNet Services" style="rounded=0;whiteSpace=wrap;html=1;" parent="1" vertex="1">
          <mxGeometry x="904.5" y="5600" width="130" height="200" as="geometry" />
        </mxCell>
        <mxCell id="tuf6UApejyB9xa2wXZY_-53" value="&lt;b style=&quot;font-size: 13px;&quot;&gt;Prod&lt;/b&gt; VNet Services" style="rounded=0;whiteSpace=wrap;html=1;fontSize=13;" parent="1" vertex="1">
          <mxGeometry x="1050" y="5600" width="130" height="200" as="geometry" />
        </mxCell>
        <mxCell id="tuf6UApejyB9xa2wXZY_-58" value="DevTest Subscription" style="text;html=1;align=center;verticalAlign=middle;whiteSpace=wrap;rounded=0;fontStyle=1" parent="1" vertex="1">
          <mxGeometry x="627.25" y="5630" width="75.5" height="30" as="geometry" />
        </mxCell>
        <mxCell id="tuf6UApejyB9xa2wXZY_-59" value="Test Subscription" style="text;html=1;align=center;verticalAlign=middle;whiteSpace=wrap;rounded=0;fontStyle=1" parent="1" vertex="1">
          <mxGeometry x="780" y="5630" width="75.5" height="30" as="geometry" />
        </mxCell>
        <mxCell id="tuf6UApejyB9xa2wXZY_-60" value="Stag&lt;div&gt;&amp;nbsp;Subscription&lt;/div&gt;" style="text;html=1;align=center;verticalAlign=middle;whiteSpace=wrap;rounded=0;fontStyle=1" parent="1" vertex="1">
          <mxGeometry x="919.79" y="5630" width="75.5" height="30" as="geometry" />
        </mxCell>
        <mxCell id="tuf6UApejyB9xa2wXZY_-61" value="&lt;div&gt;Prod Subscription&lt;/div&gt;" style="text;html=1;align=center;verticalAlign=middle;whiteSpace=wrap;rounded=0;fontStyle=1" parent="1" vertex="1">
          <mxGeometry x="1077.25" y="5630" width="75.5" height="30" as="geometry" />
        </mxCell>
        <mxCell id="tuf6UApejyB9xa2wXZY_-62" value="" style="image;aspect=fixed;html=1;points=[];align=center;fontSize=12;image=img/lib/azure2/networking/Azure_Firewall_Manager.svg;" parent="1" vertex="1">
          <mxGeometry x="889.25" y="5470" width="70" height="60" as="geometry" />
        </mxCell>
        <mxCell id="tuf6UApejyB9xa2wXZY_-63" value="WAF Policy" style="text;html=1;align=center;verticalAlign=middle;whiteSpace=wrap;rounded=0;" parent="1" vertex="1">
          <mxGeometry x="884.25" y="5530" width="80" height="30" as="geometry" />
        </mxCell>
        <mxCell id="O8g0lHt2BwUndXiQZdfd-1" value="" style="rounded=0;whiteSpace=wrap;html=1;" vertex="1" parent="1">
          <mxGeometry x="490" y="6060" width="800" height="530" as="geometry" />
        </mxCell>
        <mxCell id="O8g0lHt2BwUndXiQZdfd-2" value="" style="rounded=0;whiteSpace=wrap;html=1;" vertex="1" parent="1">
          <mxGeometry x="550" y="6110" width="670" height="100" as="geometry" />
        </mxCell>
        <mxCell id="O8g0lHt2BwUndXiQZdfd-3" value="DTM" style="text;html=1;align=center;verticalAlign=middle;whiteSpace=wrap;rounded=0;" vertex="1" parent="1">
          <mxGeometry x="550" y="6110" width="60" height="30" as="geometry" />
        </mxCell>
        <mxCell id="O8g0lHt2BwUndXiQZdfd-9" style="edgeStyle=orthogonalEdgeStyle;rounded=0;orthogonalLoop=1;jettySize=auto;html=1;" edge="1" parent="1" source="O8g0lHt2BwUndXiQZdfd-4" target="O8g0lHt2BwUndXiQZdfd-7">
          <mxGeometry relative="1" as="geometry" />
        </mxCell>
        <mxCell id="O8g0lHt2BwUndXiQZdfd-4" value="Tenant A" style="rounded=0;whiteSpace=wrap;html=1;" vertex="1" parent="1">
          <mxGeometry x="640" y="6140" width="100" height="40" as="geometry" />
        </mxCell>
        <mxCell id="O8g0lHt2BwUndXiQZdfd-10" style="edgeStyle=orthogonalEdgeStyle;rounded=0;orthogonalLoop=1;jettySize=auto;html=1;" edge="1" parent="1" source="O8g0lHt2BwUndXiQZdfd-5" target="O8g0lHt2BwUndXiQZdfd-8">
          <mxGeometry relative="1" as="geometry" />
        </mxCell>
        <mxCell id="O8g0lHt2BwUndXiQZdfd-5" value="Tenant B" style="rounded=0;whiteSpace=wrap;html=1;" vertex="1" parent="1">
          <mxGeometry x="775" y="6140" width="100" height="40" as="geometry" />
        </mxCell>
        <mxCell id="O8g0lHt2BwUndXiQZdfd-11" style="edgeStyle=orthogonalEdgeStyle;rounded=0;orthogonalLoop=1;jettySize=auto;html=1;entryX=0.5;entryY=0;entryDx=0;entryDy=0;" edge="1" parent="1" source="O8g0lHt2BwUndXiQZdfd-6" target="O8g0lHt2BwUndXiQZdfd-8">
          <mxGeometry relative="1" as="geometry">
            <Array as="points">
              <mxPoint x="947" y="6250" />
              <mxPoint x="899" y="6250" />
            </Array>
          </mxGeometry>
        </mxCell>
        <mxCell id="O8g0lHt2BwUndXiQZdfd-12" style="edgeStyle=orthogonalEdgeStyle;rounded=0;orthogonalLoop=1;jettySize=auto;html=1;entryX=0.75;entryY=0;entryDx=0;entryDy=0;" edge="1" parent="1" source="O8g0lHt2BwUndXiQZdfd-6" target="O8g0lHt2BwUndXiQZdfd-7">
          <mxGeometry relative="1" as="geometry">
            <Array as="points">
              <mxPoint x="947" y="6250" />
              <mxPoint x="661" y="6250" />
            </Array>
          </mxGeometry>
        </mxCell>
        <mxCell id="O8g0lHt2BwUndXiQZdfd-6" value="Tenant C" style="rounded=0;whiteSpace=wrap;html=1;" vertex="1" parent="1">
          <mxGeometry x="896.5" y="6140" width="100" height="40" as="geometry" />
        </mxCell>
        <mxCell id="O8g0lHt2BwUndXiQZdfd-7" value="DW service" style="rounded=0;whiteSpace=wrap;html=1;" vertex="1" parent="1">
          <mxGeometry x="570.5" y="6280" width="120" height="60" as="geometry" />
        </mxCell>
        <mxCell id="O8g0lHt2BwUndXiQZdfd-8" value="VAP serivce" style="rounded=0;whiteSpace=wrap;html=1;" vertex="1" parent="1">
          <mxGeometry x="839.25" y="6280" width="120" height="60" as="geometry" />
        </mxCell>
        <mxCell id="O8g0lHt2BwUndXiQZdfd-14" value="" style="rounded=0;whiteSpace=wrap;html=1;" vertex="1" parent="1">
          <mxGeometry x="1390" y="6060" width="800" height="530" as="geometry" />
        </mxCell>
        <mxCell id="O8g0lHt2BwUndXiQZdfd-15" value="Tenant C" style="rounded=0;whiteSpace=wrap;html=1;" vertex="1" parent="1">
          <mxGeometry x="1430" y="6090" width="100" height="40" as="geometry" />
        </mxCell>
        <mxCell id="O8g0lHt2BwUndXiQZdfd-16" value="Wrokspace A" style="rounded=0;whiteSpace=wrap;html=1;" vertex="1" parent="1">
          <mxGeometry x="1500" y="6280" width="120" height="60" as="geometry" />
        </mxCell>
        <mxCell id="O8g0lHt2BwUndXiQZdfd-17" value="Wrokspace B" style="rounded=0;whiteSpace=wrap;html=1;" vertex="1" parent="1">
          <mxGeometry x="1660" y="6280" width="120" height="60" as="geometry" />
        </mxCell>
        <mxCell id="O8g0lHt2BwUndXiQZdfd-18" value="" style="rounded=0;whiteSpace=wrap;html=1;" vertex="1" parent="1">
          <mxGeometry x="2260" y="6060" width="800" height="530" as="geometry" />
        </mxCell>
        <mxCell id="O8g0lHt2BwUndXiQZdfd-19" value="Tenant C&amp;nbsp; Wrokspace A" style="rounded=0;whiteSpace=wrap;html=1;" vertex="1" parent="1">
          <mxGeometry x="2300" y="6090" width="100" height="40" as="geometry" />
        </mxCell>
        <mxCell id="O8g0lHt2BwUndXiQZdfd-22" value="report manage" style="rounded=0;whiteSpace=wrap;html=1;" vertex="1" parent="1">
          <mxGeometry x="2420" y="6140" width="120" height="40" as="geometry" />
        </mxCell>
        <mxCell id="O8g0lHt2BwUndXiQZdfd-23" value="data manage" style="rounded=0;whiteSpace=wrap;html=1;" vertex="1" parent="1">
          <mxGeometry x="2580" y="6140" width="120" height="40" as="geometry" />
        </mxCell>
        <mxCell id="O8g0lHt2BwUndXiQZdfd-24" value="" style="rounded=0;whiteSpace=wrap;html=1;" vertex="1" parent="1">
          <mxGeometry x="2320" y="6240" width="680" height="300" as="geometry" />
        </mxCell>
      </root>
    </mxGraphModel>
  </diagram>
</mxfile>
